<svg width="24" height="25" viewBox="0 0 24 25" fill="none" xmlns="http://www.w3.org/2000/svg">
<path d="M22 12.5703C22 7.06031 17.51 2.57031 12 2.57031C6.49 2.57031 2 7.06031 2 12.5703C2 15.4703 3.25 18.0803 5.23 19.9103C5.23 19.9203 5.23 19.9203 5.22 19.9303C5.32 20.0303 5.44 20.1103 5.54 20.2003C5.6 20.2503 5.65 20.3003 5.71 20.3403C5.89 20.4903 6.09 20.6303 6.28 20.7703C6.35 20.8203 6.41 20.8603 6.48 20.9103C6.67 21.0403 6.87 21.1603 7.08 21.2703C7.15 21.3103 7.23 21.3603 7.3 21.4003C7.5 21.5103 7.71 21.6103 7.93 21.7003C8.01 21.7403 8.09 21.7803 8.17 21.8103C8.39 21.9003 8.61 21.9803 8.83 22.0503C8.91 22.0803 8.99 22.1103 9.07 22.1303C9.31 22.2003 9.55 22.2603 9.79 22.3203C9.86 22.3403 9.93 22.3603 10.01 22.3703C10.29 22.4303 10.57 22.4703 10.86 22.5003C10.9 22.5003 10.94 22.5103 10.98 22.5203C11.32 22.5503 11.66 22.5703 12 22.5703C12.34 22.5703 12.68 22.5503 13.01 22.5203C13.05 22.5203 13.09 22.5103 13.13 22.5003C13.42 22.4703 13.7 22.4303 13.98 22.3703C14.05 22.3603 14.12 22.3303 14.2 22.3203C14.44 22.2603 14.69 22.2103 14.92 22.1303C15 22.1003 15.08 22.0703 15.16 22.0503C15.38 21.9703 15.61 21.9003 15.82 21.8103C15.9 21.7803 15.98 21.7403 16.06 21.7003C16.27 21.6103 16.48 21.5103 16.69 21.4003C16.77 21.3603 16.84 21.3103 16.91 21.2703C17.11 21.1503 17.31 21.0403 17.51 20.9103C17.58 20.8703 17.64 20.8203 17.71 20.7703C17.91 20.6303 18.1 20.4903 18.28 20.3403C18.34 20.2903 18.39 20.2403 18.45 20.2003C18.56 20.1103 18.67 20.0203 18.77 19.9303C18.77 19.9203 18.77 19.9203 18.76 19.9103C20.75 18.0803 22 15.4703 22 12.5703ZM16.94 17.5403C14.23 15.7203 9.79 15.7203 7.06 17.5403C6.62 17.8303 6.26 18.1703 5.96 18.5403C4.44 17.0003 3.5 14.8903 3.5 12.5703C3.5 7.88031 7.31 4.07031 12 4.07031C16.69 4.07031 20.5 7.88031 20.5 12.5703C20.5 14.8903 19.56 17.0003 18.04 18.5403C17.75 18.1703 17.38 17.8303 16.94 17.5403Z" fill="white"/>
<path d="M12 7.5C9.93 7.5 8.25 9.18 8.25 11.25C8.25 13.28 9.84 14.93 11.95 14.99C11.98 14.99 12.02 14.99 12.04 14.99C12.06 14.99 12.09 14.99 12.11 14.99C12.12 14.99 12.13 14.99 12.13 14.99C14.15 14.92 15.74 13.28 15.75 11.25C15.75 9.18 14.07 7.5 12 7.5Z" fill="white"/>
</svg>
